<?xml version="1.0"?>
<svg xmlns="http://www.w3.org/2000/svg" id="Capa_1" enable-background="new 0 0 512 512" height="512px" viewBox="0 0 512 512" width="512px"><g><link xmlns="" type="text/css" id="dark-mode" rel="stylesheet" class="active-path" style=""/><style xmlns="" type="text/css" id="dark-mode-custom-style" class="active-path"/><g><path d="m512 357.297v-96.091c0-114.291-92.982-207.274-207.273-207.274h-33.727v-23.932h39.999v-30h-109.998v30h39.999v23.932h-33.727c-114.291 0-207.273 92.983-207.273 207.274v96.091h193.818v46.405h-193.818v108.298h512v-108.297h-193.818v-46.405h193.818zm-304.727-273.365h97.453c95.068 0 172.887 75.225 177.085 169.276h-451.622c4.198-94.051 82.016-169.276 177.084-169.276zm-177.273 199.276h452v44.089h-452zm452 198.792h-452v-48.297h452zm-193.818-78.297h-64.364v-46.405h64.364z" data-original="#000000" class="active-path" fill="#FF3E3E"/></g></g> </svg>
