<?xml version="1.0"?>
<svg xmlns="http://www.w3.org/2000/svg" viewBox="0 0 512 512" width="512px" height="512px"><g><link xmlns="" type="text/css" id="dark-mode" rel="stylesheet" class="active-path"/><style xmlns="" type="text/css" id="dark-mode-custom-style" class="active-path"/><g id="Billboard"><path d="M161.039,315.941A8,8,0,0,0,168,320H336a8,8,0,0,0,6.86-12.116l-48-80a8,8,0,0,0-13.72,0L272,243.12l-29.14-48.566a8,8,0,0,0-13.72,0l-68,113.33A8,8,0,0,0,161.039,315.941ZM288,247.55,321.871,304H308.53l-27.2-45.332Zm-52-33.331L289.87,304H182.13Z" data-original="#000000" class="active-path" fill="#FFFFFF"/><path d="M324,216a28,28,0,1,0-28-28A28.032,28.032,0,0,0,324,216Zm0-40a12,12,0,1,1-12,12A12.013,12.013,0,0,1,324,176Z" data-original="#000000" class="active-path" fill="#FFFFFF"/><path d="M136,144a8,8,0,0,0-8-8H88a8,8,0,0,0,0,16h40A8,8,0,0,0,136,144Z" data-original="#000000" class="active-path" fill="#FFFFFF"/><path d="M152,152h8a8,8,0,0,0,0-16h-8a8,8,0,0,0,0,16Z" data-original="#000000" class="active-path" fill="#FFFFFF"/><path d="M464,456H408V376h48a8,8,0,0,0,8-8V112a8,8,0,0,0-8-8H416V88h24a8,8,0,0,0,8-8V56a8,8,0,0,0-8-8H376a8,8,0,0,0-8,8V80a8,8,0,0,0,8,8h24v16H264V88h24a8,8,0,0,0,8-8V56a8,8,0,0,0-8-8H224a8,8,0,0,0-8,8V80a8,8,0,0,0,8,8h24v16H112V88h24a8,8,0,0,0,8-8V56a8,8,0,0,0-8-8H72a8,8,0,0,0-8,8V80a8,8,0,0,0,8,8H96v16H56a8,8,0,0,0-8,8V368a8,8,0,0,0,8,8h48v80H16a8,8,0,0,0,0,16H464a8,8,0,0,0,0-16ZM384,72V64h48v8ZM232,72V64h48v8ZM80,72V64h48v8ZM64,120H448V360H64ZM360,376v80H152V376ZM120,456V376h16v80Zm256,0V376h16v80Z" data-original="#000000" class="active-path" fill="#FFFFFF"/><path d="M496,456h-8a8,8,0,0,0,0,16h8a8,8,0,0,0,0-16Z" data-original="#000000" class="active-path" fill="#FFFFFF"/></g></g> </svg>
